<svg xmlns="http://www.w3.org/2000/svg" xmlns:xlink="http://www.w3.org/1999/xlink" width="1957.09" height="387.688" viewBox="0 0 1957.09 387.688">
  <path class="cls-1" d="M303.225,107.585l-0.436,72.92s-24.294-.992-41.618,15.132-18.013,27.959-18.207,40.945,2.915,18.442,6.936,29.374,11.267,17.167,13.006,19.582,9.028,8.225,21.676,12.462c12.8,4.29,57.483,10.467,71.964-11.571,17.936-27.3,9.327-37.233,11.271-40.055,1.482-2.152,0-3.561,0-3.561h68.5s-0.794,30.061-4.436,39.543-9.607,24.956-14.294,32.109-16.066,22.041-19.854,26.012-18.561,15.918-25.015,19.916-31.083,14.619-38.914,15.851-36.513,4.1-49.237,2.032-41.335-10.8-59.164-25.2-31.873-30.344-38.119-44.3-11.676-22.026-13.9-39.425-4.344-39.42.794-58.121,9.543-36.85,26.207-54.87,21.332-21.5,36.531-30.483,26.247-13.727,35.34-15.851a105.534,105.534,0,0,1,21.442-2.845A92.445,92.445,0,0,1,303.225,107.585Z" transform="translate(-171 -55)"/>
  <path class="cls-2" d="M318.817,104.992v66.657h48.84v50.4h67.9V174.494H484V104.179H434.365V55H368.848v49.992H318.817Z" transform="translate(-171 -55)"/>
  <path id="datagram" class="cls-3" d="M630,245.233q0,38.87-26.719,38.868A25.866,25.866,0,0,1,584.17,276a26.711,26.711,0,0,1-7.978-19.434,28.39,28.39,0,0,1,7.7-20.019,24.311,24.311,0,0,1,18.462-8.3q8.532,0,17.07,7.031V154.8q-12.432-1.173-18.554-1.172-38.6,0-66.8,30.078T505.87,255q0,42.581,28.388,71.875t69.766,29.3a95.754,95.754,0,0,0,73.105-35.352Q699.4,292.694,699.4,247.968V85.663H630v159.57ZM821.856,284.3a23.942,23.942,0,0,1-18.369-7.813q-7.236-7.809-7.236-19.922a27.942,27.942,0,0,1,7.978-19.921,25.244,25.244,0,0,1,18.926-8.4q12.058,0,19.2,9.18T849.5,262.03v90.235H918.9V256.757q0-47.85-25.884-75.488t-70.786-27.637q-40.264,0-68.374,29.492T725.743,255q0,43.556,27.832,72.461t69.58,28.906a87.328,87.328,0,0,0,15.586-1.562V279.218a30.33,30.33,0,0,1-16.885,5.078h0ZM951.739,85.663V245.624q0,41.6,15.957,66.8a91.6,91.6,0,0,0,33.494,31.25,90.5,90.5,0,0,0,44.44,11.523c1.73,0,4.38-.067,7.97-0.195V278.241q-18.555,0-25.51-8.789t-6.96-32.031h31.18V160.272h-31.18V85.663H951.739ZM1172.35,284.3a23.956,23.956,0,0,1-18.37-7.813q-7.23-7.809-7.23-19.922a27.944,27.944,0,0,1,7.98-19.921,25.22,25.22,0,0,1,18.92-8.4q12.06,0,19.21,9.18T1200,262.03v90.235h69.4V256.757q0-47.85-25.89-75.488-25.875-27.636-70.78-27.637-40.275,0-68.38,29.492T1076.24,255q0,43.556,27.83,72.461t69.58,28.906a87.352,87.352,0,0,0,15.59-1.562V279.218a30.353,30.353,0,0,1-16.89,5.078h0Zm222.66-8.789a23.593,23.593,0,0,1-17.72-7.422q-7.14-7.421-7.14-18.555a26.627,26.627,0,0,1,7.51-18.652q7.515-8.1,17.54-8.106,23.55,0,23.56,30.664v73.243q0,24.221-10.2,37.207t-28.95,12.988q-13.92,0-27.46-7.813v66.407q20.97,7.223,34.7,7.226,45.075,0,73.19-32.519t28.11-84.668V261.444q0-48.633-18.92-74.218-11.325-15.428-31.17-24.61a97.945,97.945,0,0,0-41.57-9.18q-40.815,0-68.83,28.711t-28.02,70.508q0,38.671,23.29,65.43t56.87,26.758a79.125,79.125,0,0,0,28.76-5.86V271.991a28.125,28.125,0,0,1-13.55,3.516h0Zm214.31-122.071q-36.555,0-58.45,25.1t-21.89,67.285V352.265h69.39V259.882q0-30.47,18.93-30.469c3.95,0,8.35,1.434,13.17,4.3V155.585a135.478,135.478,0,0,0-21.15-2.149h0ZM1736.79,284.3a23.941,23.941,0,0,1-18.37-7.813q-7.245-7.809-7.24-19.922a27.944,27.944,0,0,1,7.98-19.921q7.98-8.4,18.93-8.4,12.06,0,19.2,9.18t7.14,24.609v90.235h69.4V256.757q0-47.85-25.89-75.488t-70.78-27.637q-40.26,0-68.38,29.492T1640.67,255q0,43.556,27.84,72.461t69.58,28.906a87.248,87.248,0,0,0,15.58-1.562V279.218a30.3,30.3,0,0,1-16.88,5.078h0Zm391.32-43.75q0-39.646-16.52-60.352-20.97-26.559-55.66-26.562-27.285,0-54.55,27.344-24.5-27.343-55.3-27.344-29.865,0-50.84,22.949t-20.96,55.762V352.265h69.39V247.382q0-21.68,11.51-21.68,6.3,0,8.81,4.688t2.5,16.8V352.265h69.4V247.382q0-21.68,11.69-21.68,6.3,0,8.72,4.688t2.41,16.8V352.265h69.4V240.546Z" transform="translate(-171 -55)"/>
</svg>
