<?xml version="1.0" encoding="iso-8859-1"?>
<!-- Generator: Adobe Illustrator 19.0.0, SVG Export Plug-In . SVG Version: 6.00 Build 0)  -->
<svg version="1.1" id="Layer_1" xmlns="http://www.w3.org/2000/svg" xmlns:xlink="http://www.w3.org/1999/xlink" x="0px" y="0px"
	 viewBox="0 0 511.998 511.998" style="enable-background:new 0 0 511.998 511.998;" xml:space="preserve">
<g>
	<g>
		<circle cx="384" cy="349.868" r="17.067"/>
	</g>
</g>
<g>
	<g>
		<path d="M510.933,367.302c-7.253-56.994-53.274-103.006-110.268-110.242c-83.61-10.615-154.24,60.023-143.599,143.633
			c7.253,56.994,53.274,103.006,110.268,110.242C450.953,521.559,521.574,450.92,510.933,367.302z M435.2,435.202
			c0,4.71-3.814,8.533-8.533,8.533s-8.533-3.823-8.533-8.533v-15.548c0-17.818-12.996-33.758-30.729-35.482
			c-20.352-1.98-37.538,14.02-37.538,33.963v17.067c0,4.71-3.814,8.533-8.533,8.533c-4.719,0-8.533-3.823-8.533-8.533v-17.067
			c0-17.545,8.883-33.05,22.374-42.274c1.988-1.357,2.714-4.011,1.289-5.956c-5.828-7.953-8.346-18.458-5.274-29.577
			c3.217-11.639,12.885-20.89,24.644-23.637c22.349-5.222,42.3,11.691,42.3,33.178c0,7.475-2.449,14.362-6.554,19.985
			c-1.434,1.963-0.768,4.625,1.237,5.999c13.5,9.225,22.383,24.73,22.383,42.283V435.202z"/>
	</g>
</g>
<g>
	<g>
		<path d="M443.733,51.202h-182.05c-1.843,0-3.635-0.597-5.111-1.707l-59.17-44.373c-4.429-3.328-9.822-5.12-15.36-5.12H51.2
			c-14.14,0-25.6,11.46-25.6,25.6v68.267c0,4.71,3.823,8.533,8.533,8.533H76.8c4.71,0,8.533-3.823,8.533-8.533v-8.533
			c0-4.71,3.823-8.533,8.533-8.533h307.2c4.71,0,8.533,3.823,8.533,8.533v8.533c0,4.71,3.823,8.533,8.533,8.533H460.8
			c4.71,0,8.533-3.823,8.533-8.533V76.802C469.333,62.662,457.873,51.202,443.733,51.202z M102.4,42.668H68.267
			c-4.71,0-8.533-3.823-8.533-8.533c0-4.71,3.823-8.533,8.533-8.533H102.4c4.71,0,8.533,3.823,8.533,8.533
			C110.933,38.845,107.11,42.668,102.4,42.668z M136.533,42.668c-4.71,0-8.533-3.823-8.533-8.533c0-4.71,3.823-8.533,8.533-8.533
			s8.533,3.823,8.533,8.533C145.067,38.845,141.244,42.668,136.533,42.668z M179.2,42.668h-8.533c-4.71,0-8.533-3.823-8.533-8.533
			c0-4.71,3.823-8.533,8.533-8.533h8.533c4.71,0,8.533,3.823,8.533,8.533C187.733,38.845,183.91,42.668,179.2,42.668z"/>
	</g>
</g>
<g>
	<g>
		<circle cx="59.733" cy="187.735" r="17.067"/>
	</g>
</g>
<g>
	<g>
		<path d="M469.333,119.468H25.6c-14.14,0-25.6,11.46-25.6,25.6v324.267c0,14.08,11.52,25.6,25.6,25.6h243.917
			c2.022,0,4.062-0.717,5.692-2.176c3.516-3.14,3.806-8.533,0.666-12.049c-33.57-37.495-45.884-90.342-30.191-140.851
			c13.858-44.621,49.468-80.247,94.08-94.14c50.543-15.735,103.45-3.422,140.971,30.174c3.516,3.149,8.9,2.85,12.049-0.666
			c1.758-1.971,2.15-7.518,2.15-7.851v-19.908v-102.4C494.933,130.929,483.473,119.468,469.333,119.468z M87.296,212.729
			c6.485,9.276,6.571,18.526,6.571,26.206c0,4.71-3.823,8.533-8.533,8.533c-4.71,0-8.533-3.823-8.533-8.533
			c0-6.741-0.034-11.887-3.857-17.024c-1.015-1.365-2.85-1.749-4.489-1.289c-2.782,0.777-5.692,1.246-8.721,1.246
			s-5.939-0.469-8.721-1.246c-1.638-0.461-3.473-0.077-4.489,1.289c-3.823,5.137-3.857,10.283-3.857,17.024
			c0,4.71-3.823,8.533-8.533,8.533c-4.71,0-8.533-3.823-8.533-8.533c0-7.68,0.085-16.93,6.562-26.206
			c1.101-1.579,1.101-3.61-0.034-5.171c-5.828-8.013-8.363-18.543-5.069-29.79c3.371-11.503,13.022-20.599,24.704-23.262
			c22.272-5.06,42.104,11.81,42.104,33.229c0,7.433-2.466,14.242-6.528,19.831C86.204,209.12,86.195,211.151,87.296,212.729z
			 M213.333,315.735c-4.71,0-8.533-3.823-8.533-8.533c0-43.588-19.874-67.191-29.261-76.894c-1.05-1.092-2.603-1.468-4.07-1.109
			c-3.004,0.725-6.101,1.203-9.335,1.203s-6.332-0.478-9.336-1.203c-1.468-0.358-3.021,0.026-4.07,1.109
			c-9.387,9.702-29.261,33.306-29.261,76.894c0,4.71-3.823,8.533-8.533,8.533s-8.533-3.823-8.533-8.533
			c0-44.186,17.971-70.673,29.662-84.002c1.502-1.715,1.237-4.224-0.358-5.854c-9.344-9.532-14.37-23.279-11.366-38.246
			c3.277-16.35,16.35-29.67,32.674-33.075c27.486-5.734,51.789,15.206,51.789,41.711c0,11.563-4.719,21.948-12.237,29.611
			c-1.596,1.621-1.86,4.139-0.358,5.854c11.691,13.329,29.662,39.817,29.662,84.002
			C221.867,311.912,218.044,315.735,213.333,315.735z M292.105,212.729c6.477,9.276,6.562,18.526,6.562,26.206
			c0,4.71-3.823,8.533-8.533,8.533s-8.533-3.823-8.533-8.533c0-6.741-0.034-11.887-3.857-17.024
			c-1.016-1.365-2.85-1.749-4.489-1.289c-2.782,0.777-5.692,1.246-8.721,1.246c-3.029,0-5.939-0.469-8.721-1.246
			c-1.638-0.461-3.473-0.077-4.489,1.289c-3.823,5.137-3.857,10.283-3.857,17.024c0,4.71-3.823,8.533-8.533,8.533
			s-8.533-3.823-8.533-8.533c0-7.68,0.085-16.93,6.562-26.206c1.101-1.579,1.101-3.61-0.034-5.171
			c-5.828-8.013-8.363-18.543-5.069-29.79c3.371-11.503,13.022-20.599,24.704-23.262c22.272-5.06,42.103,11.81,42.103,33.229
			c0,7.433-2.466,14.242-6.528,19.831C291.004,209.12,291.004,211.151,292.105,212.729z"/>
	</g>
</g>
<g>
	<g>
		<circle cx="264.533" cy="187.735" r="17.067"/>
	</g>
</g>
<g>
	<g>
		<circle cx="162.133" cy="187.735" r="25.6"/>
	</g>
</g>
<g>
</g>
<g>
</g>
<g>
</g>
<g>
</g>
<g>
</g>
<g>
</g>
<g>
</g>
<g>
</g>
<g>
</g>
<g>
</g>
<g>
</g>
<g>
</g>
<g>
</g>
<g>
</g>
<g>
</g>
</svg>
